<svg id="Layer_1" data-name="Layer 1" xmlns="http://www.w3.org/2000/svg" viewBox="0 0 639.35 103.25"><title>backtrack</title><path d="M109.07,101.14q0,18.3-10,27.87t-27,9.57a28.88,28.88,0,0,1-17.71-6L49.89,137H36.64V36.92l26.21-1.58V66.58a31.34,31.34,0,0,1,10.37-1.87q16.13,0,26,9.22T109.07,101.14ZM82,101.29q0-7.92-3.31-12.17t-9.51-4.25A11.17,11.17,0,0,0,62.85,87v29.52a18.56,18.56,0,0,0,7.49,1.87q5,0,8.35-4.6T82,101.29Z" transform="translate(-36.64 -35.34)" style="fill:#ffd400"/><path d="M143.2,86a36,36,0,0,0-8.42,1.23,57.24,57.24,0,0,0-9,3l-6.92-18.86a77.34,77.34,0,0,1,14.4-4.68,72.07,72.07,0,0,1,16.42-2q14,0,21.46,7.78t7.48,21.31V137H166l-7.49-7.2q-6.92,8.79-15.69,8.78-13,0-19.59-6.48t-6.62-17.56q0-20.45,27.36-20.45h8.35a9.33,9.33,0,0,0-3-6A9.16,9.16,0,0,0,143.2,86Zm1.15,22.47a5.93,5.93,0,0,0-4.25,1.58,5.35,5.35,0,0,0-1.65,4,4.78,4.78,0,0,0,1.36,3.53A4.62,4.62,0,0,0,143.2,119q4.45,0,9.22-3.89v-6.62Z" transform="translate(-36.64 -35.34)" style="fill:#ffd400"/><path d="M226.29,64.71q15,0,23.9,7.06l-7.34,18a36,36,0,0,0-7.2-3,26.7,26.7,0,0,0-6.77-.8,12.64,12.64,0,0,0-9.58,4.47q-4.11,4.45-4.1,11.66t4,11.09a13.15,13.15,0,0,0,9.65,4,27.8,27.8,0,0,0,6.77-.79,32.32,32.32,0,0,0,7.2-3l7.34,18q-8.92,7-23.9,7.05-17.28,0-27.73-9.57t-10.43-26.86q0-11.52,4.82-20a32,32,0,0,1,13.46-13A42.66,42.66,0,0,1,226.29,64.71Z" transform="translate(-36.64 -35.34)" style="fill:#ffd400"/><path d="M285.9,114.54V137H259.69V36.92l26.21-1.58V87.18l26.06-22,15.7,18-18.58,14L332.7,137H304.47l-13.82-26.06Z" transform="translate(-36.64 -35.34)" style="fill:#ffd400"/><path d="M371.15,70h18.28l2.45,20.59H371.15v17.28a9.94,9.94,0,0,0,2.23,6.84,7.57,7.57,0,0,0,6,2.52,20.43,20.43,0,0,0,10.08-2.73l7.49,17.85a26.6,26.6,0,0,1-8.57,4.25,34,34,0,0,1-10.72,1.94,41,41,0,0,1-16.13-3.16,27.93,27.93,0,0,1-12-9.44,25.19,25.19,0,0,1-4.53-15.19V90.63h-10.8V70h10.8V51.18l26.21-3.6Z" transform="translate(-36.64 -35.34)" style="fill:#ffd400"/><path d="M442.42,90.34A37.45,37.45,0,0,0,431.77,96v41H405.56V67.3h13.1L425,75.8a59.46,59.46,0,0,1,11.52-6,32.34,32.34,0,0,1,12-2.59l5.33,21A34.79,34.79,0,0,0,442.42,90.34Z" transform="translate(-36.64 -35.34)" style="fill:#ffd400"/><path d="M486.49,86a36.05,36.05,0,0,0-8.43,1.23,57.94,57.94,0,0,0-9,3l-6.91-18.86a77.1,77.1,0,0,1,14.4-4.68,72.07,72.07,0,0,1,16.42-2q14,0,21.45,7.78t7.49,21.31V137H509.24l-7.49-7.2q-6.92,8.79-15.7,8.78-13,0-19.58-6.48t-6.62-17.56q0-20.45,27.36-20.45h8.35a9.38,9.38,0,0,0-2.95-6A9.18,9.18,0,0,0,486.49,86Zm1.15,22.47a5.91,5.91,0,0,0-4.25,1.58,5.36,5.36,0,0,0-1.66,4,4.79,4.79,0,0,0,1.37,3.53,4.61,4.61,0,0,0,3.39,1.37q4.45,0,9.21-3.89v-6.62Z" transform="translate(-36.64 -35.34)" style="fill:#ffd400"/><path d="M569.57,64.71q15,0,23.91,7.06l-7.35,18a35.57,35.57,0,0,0-7.2-3,26.56,26.56,0,0,0-6.76-.8,12.64,12.64,0,0,0-9.58,4.47q-4.11,4.45-4.1,11.66t4,11.09a13.14,13.14,0,0,0,9.65,4,27.71,27.71,0,0,0,6.76-.79,32.32,32.32,0,0,0,7.2-3l7.35,18q-8.94,7-23.91,7.05-17.28,0-27.72-9.57t-10.44-26.86q0-11.52,4.83-20a32,32,0,0,1,13.46-13A42.62,42.62,0,0,1,569.57,64.71Z" transform="translate(-36.64 -35.34)" style="fill:#ffd400"/><path d="M629.19,114.54V137H603V36.92l26.21-1.58V87.18l26.06-22,15.7,18-18.58,14L676,137H647.76l-13.82-26.06Z" transform="translate(-36.64 -35.34)" style="fill:#ffd400"/></svg>